<?xml version="1.0" encoding="UTF-8"?><svg id="Layer_1" xmlns="http://www.w3.org/2000/svg" viewBox="0 0 1292.27 246.2"><defs><style>.cls-1{fill:#231f20;}</style></defs><path class="cls-1" d="M109.45,196.35h28.65c-4.21,16.04-12.23,28.28-24.07,36.67-11.84,8.79-26.74,13.18-44.7,13.18-21.78,0-38.78-7.06-51-21.2C6.11,211.24,0,191.58,0,165.98s5.92-43.55,17.76-57.3c12.22-14.13,29.22-21.2,51-21.2,22.92,0,40.68,6.88,53.29,20.63,6.88,8.41,11.83,18.15,14.9,29.22h-40.11c-1.92-3.81-3.82-6.68-5.73-8.6-4.97-5.34-12.03-8.02-21.2-8.02-8.41,0-15.29,2.68-20.63,8.02-6.88,7.65-10.31,20.25-10.31,37.82s3.44,30,10.31,37.25c4.96,6.12,12.41,9.17,22.35,9.17,6.49,0,12.03-1.33,16.62-4.01,1.15-.38,2.19-1.05,3.15-2.01,.95-.95,2.01-2.01,3.15-3.15,.76-1.15,2.29-2.67,4.58-4.58,2.29-1.91,5.73-2.87,10.31-2.87Z"/><path class="cls-1" d="M249.78,133.89c-5.73-8.02-13.56-12.03-23.49-12.03-10.7,0-18.91,3.82-24.64,11.46-5.73,7.65-8.6,18.15-8.6,31.51v78.5h-38.97V4.55h19.48c5.35,0,9.93,1.92,13.75,5.73,3.81,3.82,5.73,8.41,5.73,13.75V110.97c6.88-11.46,16.62-18.71,29.22-21.77,12.61-3.05,24.64-2.29,36.1,2.29,10.69,4.58,19.67,11.85,26.93,21.77,7.25,9.94,10.89,23.69,10.89,41.26v88.82h-38.39v-79.08c0-5.73-.48-10.98-1.43-15.76-.96-4.77-3.15-9.64-6.59-14.61Z"/><path class="cls-1" d="M331.66,229.58c-8.02-6.88-13.75-16.13-17.19-27.79-3.44-11.65-5.16-23.78-5.16-36.39,0-10.31,1.43-20.63,4.3-30.94,2.87-10.31,7.35-18.91,13.47-25.79,9.93-11.46,22.72-18.24,38.39-20.34,15.66-2.09,29.8-.86,42.4,3.72,14.51,5.73,25.21,15.67,32.09,29.8,6.49,12.61,9.74,27.32,9.74,44.12,0,12.23-1.34,22.73-4.01,31.52-2.68,8.79-6.11,16.24-10.31,22.35-9.17,12.61-20.83,20.44-34.95,23.49-12.61,3.44-25.31,3.72-38.11,.86-12.8-2.87-23.02-7.74-30.66-14.61Zm27.51-100.85c-8.02,8.79-11.66,21.87-10.89,39.25,.76,17.39,4.01,29.51,9.74,36.39,2.29,3.06,6.3,5.64,12.03,7.74,5.73,2.11,11.55,2.29,17.48,.57,5.92-1.72,11.17-6.02,15.76-12.89s7.07-17.95,7.45-33.24c0-13.75-2.2-24.07-6.59-30.94-4.4-6.88-9.45-11.26-15.19-13.18-5.73-1.91-11.46-2.01-17.19-.29s-9.94,3.92-12.61,6.59Z"/><path class="cls-1" d="M465.69,243.33v-73.92c0-14.9,2.19-27.4,6.59-37.53,4.39-10.12,10.4-18.24,18.05-24.35,7.25-5.73,15.76-9.93,25.5-12.61,9.74-2.67,19.77-4.01,30.08-4.01h5.73v40.68h-13.18c-11.09,0-19.29,2.68-24.64,8.02-5.35,5.35-8.02,13.75-8.02,25.21v78.5h-40.11Z"/><path class="cls-1" d="M666.19,24.07l19.48,21.57c5.35,0,9.99,1.95,13.75,6.02,3.82,4.12,5.8-13.99,5.73-12.25V176.86c0,27.13-7.83,45.47-23.49,55.01-15.67,9.56-32.66,14.33-51,14.33-9.94,0-19.68-1.63-29.22-4.87-9.55-3.24-17.19-8.5-22.92-15.76-11.09-14.13-16.62-33.42-16.62-57.88s5.53-43.35,16.62-57.87c11.46-14.9,26.16-22.35,44.12-22.35,9.54,0,17.95,1.92,25.21,5.73,7.64,4.58,13.75,10.51,18.34,17.76V24.07Zm-65.32,141.9c0,15.29,2.87,26.93,8.6,34.95s13.94,12.03,24.64,12.03,18.34-4.01,24.07-12.03c5.35-8.02,8.02-19.67,8.02-34.95,0-13.75-2.87-24.64-8.6-32.66-6.11-7.64-14.33-11.46-24.64-11.46s-17.76,4.01-23.49,12.03c-5.73,7.65-8.6,18.34-8.6,32.09Z"/><path class="cls-1" d="M890.76,243.33h-40.11l-23.49-108.87-23.49,108.87h-40.11l-41.83-152.42h38.97l24.07,105.44,21.77-105.44h40.68l20.63,105.44,21.2-91.68c2.29-9.17,8.4-13.75,18.34-13.75h25.21l-41.83,152.42Z"/><path class="cls-1" d="M950.15,46.21h20.63c5.35,0,9.93,1.92,13.75,5.73,3.81,3.82,5.73,8.41,5.73,13.75v12.03h-40.11v-31.52Zm0,44.7h20.63c5.35,0,9.93,1.92,13.75,5.73,3.81,3.82,5.73,8.41,5.73,13.75V243.33h-40.11V90.91Z"/><path class="cls-1" d="M1007.03,192.91h38.97c.38,7.65,3.24,13.38,8.6,17.19,5.73,3.82,13.37,5.73,22.92,5.73,6.88,0,12.8-1.33,17.76-4.01,4.58-2.67,6.88-6.3,6.88-10.89,0-6.88-8.02-12.03-24.07-15.47-6.88-1.15-12.03-2.29-15.47-3.44-20.25-4.96-33.81-10.89-40.68-17.76-7.65-6.88-11.46-16.04-11.46-27.5,0-14.51,5.53-26.55,16.62-36.1,11.46-8.78,26.36-13.18,44.7-13.18,19.86,0,35.72,4.4,47.56,13.18,11.08,9.55,16.99,21.97,17.76,37.25h-24.64c-7.26,0-12.8-3.24-16.62-9.74-1.53-1.52-3.06-3.05-4.58-4.58-4.58-3.44-10.89-5.16-18.91-5.16s-13.38,1.15-17.19,3.44c-3.44,2.29-5.16,5.73-5.16,10.31,0,6.12,9.93,11.27,29.8,15.47,2.29,.77,4.3,1.34,6.02,1.72,1.72,.39,3.34,.57,4.87,.57,19.48,4.97,33.04,10.7,40.68,17.19,7.25,6.88,10.89,16.04,10.89,27.51,0,16.82-6.11,29.8-18.34,38.97-11.46,8.41-28.65,12.61-51.57,12.61s-38.02-4.39-48.71-13.18c-11.09-8.78-16.62-21.58-16.62-38.39v-1.72Z"/><path class="cls-1" d="M1261.33,196.35h28.65c-4.21,16.04-12.23,28.28-24.07,36.67-11.84,8.79-26.74,13.18-44.7,13.18-21.77,0-38.78-7.06-51-21.2-12.23-13.75-18.34-33.42-18.34-59.02s5.92-43.55,17.76-57.3c12.22-14.13,29.22-21.2,51-21.2,22.92,0,40.68,6.88,53.29,20.63,12.22,14.14,18.34,33.81,18.34,59.02v6.3c0,1.92-.2,3.25-.57,4.01h-99.13c.38,11.85,3.24,20.63,8.6,26.36,4.96,6.12,12.41,9.17,22.35,9.17,6.49,0,12.03-1.33,16.62-4.01,1.15-.38,2.19-1.05,3.15-2.01l3.15-3.15c.38-1.15,1.81-2.67,4.3-4.58,2.48-1.91,6.02-2.87,10.6-2.87Zm-68.76-44.7h58.45c-.77-10.31-3.44-17.95-8.02-22.92-4.97-5.34-12.03-8.02-21.2-8.02-8.41,0-15.28,2.68-20.63,8.02-5.35,5.35-8.22,12.99-8.6,22.92Z"/><path class="cls-1" d="M705.16,61.97h-38.97V2.29h24.16c8.18,0,14.81,6.63,14.81,14.81V61.97Z"/><path class="cls-1" d="M701.98,8.02c24.02,25.99,35.84,28.94,41.66,25.16,2.79-1.81,5.14-5.61,7.58-4.6,4.24,1.76,6.38,13.37,1.89,22.43-4.82,9.74-31.84,23.34-57.62-9.1"/></svg>